<svg xmlns="http://www.w3.org/2000/svg" viewBox="0 0 600 339" role="img" aria-label="North Star logo">
  <g transform="translate(0.000000,339.000000) scale(0.100000,-0.100000)" fill="#111111" stroke="none">
    <path d="M3497 2955 c-32 -33 -93 -100 -135 -148 -63 -72 -80 -87 -97 -81 -34 12 -383 16 -520 6 -152 -12 -127 -24 -255 123 -48 55 -105 113 -126 127 -35 24 -44 26 -86 18 -27 -5 -309 -7 -650 -4 -708 7 -591 7 -923 2 -148 -2 -275 -7 -281 -10 -6 -4 -55 -3 -108 3 -54 5 -101 7 -105 4 -13 -14 45 -45 85 -45 26 0 47 -6 55 -16 32 -39 132 -96 181 -103 27 -5 53 -13 57 -19 12 -20 62 -33 95 -24 17 5 46 5 64 1 18 -4 48 -3 66 1 19 4 40 4 47 0 21 -14 240 -12 256 2 11 9 16 9 22 -1 6 -10 122 -13 522 -16 299 -2 531 -8 554 -14 30 -7 52 -24 85 -62 70 -82 231 -261 384 -428 l140 -151 -3 -162 c-1 -90 2 -239 8 -333 6 -93 16 -330 21 -525 6 -195 15 -400 20 -455 13 -123 47 -254 71 -278 11 -10 20 -25 20 -35 2 -24 17 66 18 106 1 43 -15 41 -28 -5 -8 -30 -10 -6 -6 112 2 83 8 164 13 180 l10 30 2 -30 c1 -16 5 -39 9 -50 7 -16 10 -12 19 25 5 25 10 35 11 22 1 -13 8 -30 16 -38 13 -14 15 -10 15 29 0 25 2 52 6 60 3 10 -2 14 -18 14 -48 1 -58 3 -58 17 0 18 70 72 70 54 1 -9 3 -9 9 2 8 14 19 519 23 1060 l2 245 186 193 c172 180 219 231 352 385 l51 59 206 -3 c113 -1 383 -1 600 0 330 2 399 5 424 17 16 9 26 11 23 5 -5 -8 17 -11 68 -11 74 0 75 0 78 27 2 14 9 29 17 31 9 3 12 0 9 -10 -14 -37 7 -43 138 -42 105 1 129 4 139 17 10 15 13 15 27 1 20 -21 50 -11 97 30 41 37 97 72 156 100 37 17 39 19 18 27 -36 14 -484 15 -509 2 -15 -9 -24 -9 -32 -1 -15 15 -158 19 -912 21 l-655 3 -58 -61z m1401 26 c-16 -27 -58 -45 -71 -32 -8 8 -1 13 21 17 17 4 37 13 43 20 17 20 21 17 7 -5z m232 -22 c0 -18 -18 -9 -23 12 -4 16 -3 18 9 8 8 -6 14 -15 14 -20z m-4721 -3 c9 -10 8 -15 -3 -19 -16 -6 -40 16 -29 26 10 11 19 8 32 -7z m71 -38 c0 -6 -7 -7 -16 -4 -9 3 -18 6 -20 6 -3 0 -3 4 1 10 7 11 35 2 35 -12z m4980 4 c0 -14 -11 -21 -26 -15 -21 8 -17 23 6 23 11 0 20 -4 20 -8z m-630 -22 c0 -5 -5 -10 -11 -10 -5 0 -7 5 -4 10 3 6 8 10 11 10 2 0 4 -4 4 -10z m525 -6 c14 -11 15 -15 5 -13 -8 1 -28 -1 -43 -6 -32 -9 -40 -4 -31 19 8 20 43 20 69 0z m-306 -7 c-2 -1 -13 -9 -24 -17 -19 -14 -19 -14 -6 3 7 9 18 17 24 17 6 0 8 -1 6 -3z m387 -16 c-3 -5 -15 -7 -26 -4 -28 7 -25 13 6 13 14 0 23 -4 20 -9z m29 -11 c3 -5 4 -10 1 -10 -3 0 -8 5 -11 10 -3 6 -4 10 -1 10 3 0 8 -4 11 -10z m-455 -30 c0 -5 -2 -10 -4 -10 -3 0 -8 5 -11 10 -3 6 -1 10 4 10 6 0 11 -4 11 -10z m-1650 -183 c0 -7 -9 -23 -21 -36 l-21 -22 -15 21 c-8 12 -13 22 -12 23 2 1 13 7 24 14 27 16 45 16 45 0z m-720 -28 c0 -5 -4 -7 -10 -4 -5 3 -10 1 -10 -4 0 -6 5 -11 10 -11 6 0 10 -7 10 -16 0 -13 -6 -11 -31 7 -23 16 -28 24 -17 30 18 12 48 11 48 -2z m361 -89 c90 0 149 -4 149 -10 0 -12 -52 -61 -110 -103 -25 -18 -58 -52 -75 -74 -16 -23 -33 -42 -37 -42 -4 -1 -22 20 -39 47 -18 26 -57 73 -87 105 -43 45 -61 57 -85 57 -17 0 -28 2 -25 5 8 8 130 23 146 19 8 -2 81 -4 163 -4z m3 -1101 c-3 -6 0 -15 7 -20 11 -7 10 -9 -3 -9 -18 0 -24 20 -11 33 10 11 15 8 7 -4z m0 -361 c-1 -13 -3 -27 -3 -32 -1 -13 -31 15 -31 29 0 12 13 22 31 24 3 1 5 -9 3 -21z"/>
    <path d="M168 2943 c7 -3 16 -2 19 1 4 3 -2 6 -13 5 -11 0 -14 -3 -6 -6z"/>
    <path d="M3627 2634 c-37 -44 -82 -92 -102 -107 -48 -39 -250 -261 -291 -322 l-34 -50 0 -256 c0 -164 4 -268 11 -288 9 -24 9 -35 0 -44 -13 -13 -14 -571 -1 -602 5 -11 9 -15 9 -9 1 5 8 19 16 30 14 18 14 18 8 -3 -3 -13 -1 -23 4 -23 5 0 10 8 11 18 5 50 23 151 32 182 5 19 10 51 10 71 0 19 7 44 15 55 14 18 14 18 15 -6 1 -14 4 -19 7 -12 4 10 8 10 19 1 11 -9 14 -6 14 20 0 17 0 34 1 39 2 15 23 33 98 84 76 52 190 137 376 281 106 82 263 189 406 275 134 81 134 82 -23 77 -73 -2 -163 -4 -200 -4 -65 0 -70 -2 -105 -37 -21 -20 -69 -56 -106 -81 -38 -24 -96 -69 -130 -101 -34 -32 -78 -68 -97 -81 -19 -13 -65 -53 -101 -89 -37 -35 -71 -62 -77 -58 -5 3 -12 110 -17 243 -4 130 -11 248 -16 261 -5 14 -8 26 -6 28 7 8 1092 6 1111 -2 34 -13 69 9 377 238 57 43 136 101 175 130 39 29 110 84 158 123 80 63 86 70 64 76 -13 3 -201 7 -418 7 -217 1 -564 4 -771 8 l-376 6 -66 -78z m865 -56 c-6 -6 -15 -8 -19 -4 -4 4 -1 11 7 16 19 12 27 3 12 -12z m618 8 c0 -2 -8 -10 -17 -17 -16 -13 -17 -12 -4 4 13 16 21 21 21 13z m-239 -24 l22 -19 -27 -7 c-28 -7 -52 3 -28 11 6 3 12 9 12 15 0 6 -7 7 -16 4 -8 -3 -12 -2 -9 4 9 14 20 12 46 -8z m46 -9 c-4 -3 -10 -3 -14 0 -3 4 0 7 7 7 7 0 10 -3 7 -7z m-644 -34 c474 2 468 3 410 -51 -120 -110 -217 -148 -381 -148 -57 0 -112 -5 -122 -10 -13 -7 -21 -7 -25 0 -4 6 -66 10 -153 11 -81 0 -183 4 -227 8 -120 11 -129 8 -162 -55 -25 -48 -43 -68 -43 -46 0 12 70 125 108 172 73 93 115 130 137 123 11 -3 217 -5 458 -4z m337 -225 c9 -9 10 -14 3 -14 -7 0 -15 5 -18 10 -3 6 -20 10 -36 10 -19 0 -28 4 -23 11 8 13 54 3 74 -17z m-443 -36 c-3 -7 -5 -2 -5 12 0 14 2 19 5 13 2 -7 2 -19 0 -25z m-836 -315 c-8 -15 -10 -15 -11 -2 0 17 10 32 18 25 2 -3 -1 -13 -7 -23z m9 -133 c0 -5 -5 -10 -11 -10 -5 0 -7 5 -4 10 3 6 8 10 11 10 2 0 4 -4 4 -10z m490 -34 c0 -9 -32 -36 -42 -36 -6 0 0 9 13 20 25 21 29 23 29 16z m-96 -47 c-3 -5 -10 -7 -15 -3 -5 3 -7 10 -3 15 3 5 10 7 15 3 5 -3 7 -10 3 -15z m113 4 c-4 -3 -7 0 -7 7 0 7 3 10 7 7 3 -4 3 -10 0 -14z m-51 -17 c23 15 24 15 18 0 -8 -20 -84 -61 -84 -46 0 6 -4 8 -10 5 -5 -3 -10 -1 -10 5 0 6 11 16 25 22 14 6 26 18 26 27 1 9 4 6 6 -6 4 -22 5 -22 29 -7z m-456 -99 c0 -5 -4 -5 -10 -2 -5 3 -10 14 -10 23 0 15 2 15 10 2 5 -8 10 -19 10 -23z m177 -24 c-4 -3 -7 0 -7 7 0 7 3 10 7 7 3 -4 3 -10 0 -14z m53 4 c0 -2 -11 -14 -25 -27 -27 -25 -35 -12 -9 14 14 14 34 22 34 13z m-243 -254 c-4 -3 -7 0 -7 7 0 7 3 10 7 7 3 -4 3 -10 0 -14z"/>
    <path d="M640 2690 c0 -5 26 -26 58 -46 31 -20 95 -67 142 -104 172 -136 436 -323 515 -363 97 -49 72 -47 630 -47 231 1 448 -2 481 -6 l62 -6 -14 -27 c-11 -20 -14 -81 -14 -265 l0 -239 -78 74 c-195 186 -431 358 -500 364 -91 8 -352 17 -352 12 0 -3 28 -23 63 -44 34 -20 127 -79 206 -130 79 -51 148 -93 153 -93 5 0 22 -11 36 -24 15 -14 106 -88 202 -165 96 -77 201 -162 232 -188 l57 -48 0 -158 1 -158 35 -14 c26 -12 37 -23 44 -52 10 -36 64 -113 79 -113 4 0 6 18 4 40 -2 23 1 114 7 203 18 268 26 977 11 1022 -9 27 -68 94 -222 248 -115 117 -225 235 -244 264 -19 29 -40 55 -46 59 -16 10 -1348 5 -1428 -5 -49 -6 -70 -5 -85 5 -23 16 -35 18 -35 4z m1493 -210 c8 -36 64 -100 111 -125 82 -44 56 -48 -348 -47 -454 1 -493 3 -512 31 -9 12 -40 39 -69 61 -59 44 -97 81 -90 88 2 3 192 7 422 9 229 2 419 6 422 9 2 2 17 4 31 4 22 0 29 -6 33 -30z m458 -1383 c-8 -8 -11 -3 -11 19 1 25 2 27 11 11 8 -14 8 -22 0 -30z"/>
    <path d="M3331 1222 c-7 -15 -10 -46 -9 -69 3 -39 4 -40 31 -31 22 8 27 16 27 44 0 34 -18 84 -30 84 -4 0 -13 -13 -19 -28z"/>
    <path d="M3341 1047 c-7 -9 -8 -23 -3 -37 8 -21 8 -21 21 6 14 31 1 53 -18 31z"/>
    <path d="M3253 943 c4 -3 10 -3 14 0 3 4 0 7 -7 7 -7 0 -10 -3 -7 -7z"/>
    <path d="M3218 923 c-2 -10 -2 -29 1 -42 6 -21 8 -22 20 -7 11 13 11 19 1 31 -6 8 -9 19 -5 25 3 5 2 10 -3 10 -5 0 -12 -8 -14 -17z"/>
    <path d="M3253 923 c4 -3 10 -3 14 0 3 4 0 7 -7 7 -7 0 -10 -3 -7 -7z"/>
    <path d="M2700 830 c0 -7 3 -10 7 -7 3 4 3 10 0 14 -4 3 -7 0 -7 -7z"/>
  </g>
</svg>
